<svg xmlns="http://www.w3.org/2000/svg" xmlns:xlink="http://www.w3.org/1999/xlink" width="170" zoomAndPan="magnify" viewBox="0 0 127.5 44.999999" height="60" preserveAspectRatio="xMidYMid meet" version="1.0"><defs><g/><clipPath id="658828eb57"><path d="M 12 40 L 50 40 L 50 44.910156 L 12 44.910156 Z M 12 40 " clip-rule="nonzero"/></clipPath><clipPath id="fc128be165"><path d="M 0 0.0859375 L 61 0.0859375 L 61 42 L 0 42 Z M 0 0.0859375 " clip-rule="nonzero"/></clipPath></defs><g clip-path="url(#658828eb57)"><path fill="#f17424" d="M 18.933594 43.460938 C 19.179688 43.136719 19.660156 43.136719 19.910156 43.460938 C 21.027344 44.917969 22.96875 45.886719 25.171875 45.886719 C 27.332031 45.886719 29.242188 44.953125 30.371094 43.539062 C 30.617188 43.230469 31.082031 43.230469 31.328125 43.539062 C 32.457031 44.953125 34.363281 45.886719 36.527344 45.886719 C 38.710938 45.886719 40.632812 44.9375 41.757812 43.5 C 42.003906 43.183594 42.476562 43.183594 42.726562 43.5 C 43.847656 44.933594 45.761719 45.878906 47.933594 45.886719 L 49.292969 44.53125 C 48.867188 44.625 48.421875 44.679688 47.957031 44.679688 C 45.167969 44.679688 42.894531 42.835938 42.894531 40.570312 L 41.585938 40.570312 C 41.585938 42.835938 39.316406 44.679688 36.527344 44.679688 C 33.738281 44.679688 31.464844 42.835938 31.464844 40.570312 L 30.230469 40.570312 C 30.230469 42.835938 27.960938 44.679688 25.171875 44.679688 C 22.382812 44.679688 20.113281 42.835938 20.113281 40.570312 L 18.730469 40.570312 C 18.730469 42.835938 16.460938 44.679688 13.671875 44.679688 C 13.140625 44.679688 12.628906 44.609375 12.148438 44.488281 L 13.550781 45.882812 C 13.589844 45.882812 13.628906 45.886719 13.671875 45.886719 C 15.875 45.886719 17.8125 44.917969 18.933594 43.460938 " fill-opacity="1" fill-rule="nonzero"/></g><g clip-path="url(#fc128be165)"><path fill="#f17424" d="M 47.003906 30.042969 C 46.679688 31.433594 45.171875 32.492188 43.363281 32.492188 C 41.320312 32.492188 39.660156 31.140625 39.660156 29.484375 L 38.703125 29.484375 C 38.703125 31.140625 37.039062 32.492188 34.996094 32.492188 C 32.953125 32.492188 31.292969 31.140625 31.292969 29.484375 L 30.386719 29.484375 C 30.386719 31.140625 28.726562 32.492188 26.683594 32.492188 C 24.640625 32.492188 22.976562 31.140625 22.976562 29.484375 L 21.96875 29.484375 C 21.96875 31.140625 20.304688 32.492188 18.265625 32.492188 C 16.222656 32.492188 14.558594 31.140625 14.558594 29.484375 L 14.492188 29.484375 C 14.589844 28.398438 15.503906 27.546875 16.621094 27.546875 L 44.863281 27.546875 C 46.046875 27.546875 47.003906 28.503906 47.003906 29.679688 Z M 47.003906 37.5 L 14.480469 37.5 L 14.480469 31.6875 C 15.3125 32.707031 16.695312 33.375 18.265625 33.375 C 20.144531 33.375 21.765625 32.410156 22.472656 31.035156 C 23.183594 32.410156 24.800781 33.375 26.683594 33.375 C 28.519531 33.375 30.105469 32.457031 30.839844 31.136719 C 31.574219 32.457031 33.160156 33.375 34.996094 33.375 C 36.855469 33.375 38.457031 32.433594 39.179688 31.085938 C 39.902344 32.433594 41.503906 33.375 43.363281 33.375 C 44.84375 33.375 46.164062 32.777344 47.003906 31.851562 Z M 29.351562 18.171875 L 29.351562 26.695312 L 27 26.695312 L 27 18.171875 Z M 28.175781 9.328125 C 30.9375 12.921875 30.042969 15.734375 29.125 17.226562 C 29.320312 16.367188 29.210938 15.21875 28.175781 13.867188 C 27.140625 15.21875 27.03125 16.367188 27.226562 17.226562 C 26.308594 15.734375 25.414062 12.921875 28.175781 9.328125 Z M 34.488281 18.171875 L 34.488281 26.695312 L 32.132812 26.695312 L 32.132812 18.171875 Z M 33.308594 9.328125 C 36.070312 12.921875 35.179688 15.734375 34.257812 17.226562 C 34.453125 16.367188 34.347656 15.21875 33.308594 13.867188 C 32.273438 15.21875 32.164062 16.367188 32.363281 17.226562 C 31.441406 15.734375 30.550781 12.921875 33.308594 9.328125 Z M 58.539062 24.722656 L 36.058594 2.316406 C 33.121094 -0.609375 28.363281 -0.609375 25.429688 2.316406 L 2.945312 24.722656 C 0.0117188 27.648438 0.0117188 32.390625 2.945312 35.316406 L 8.917969 41.269531 L 8.917969 40.910156 C 8.917969 39.734375 9.875 38.777344 11.058594 38.777344 L 50.425781 38.777344 C 51.609375 38.777344 52.566406 39.734375 52.566406 40.910156 L 52.566406 41.269531 L 58.539062 35.316406 C 61.472656 32.390625 61.472656 27.648438 58.539062 24.722656 " fill-opacity="1" fill-rule="nonzero"/></g><g fill="#000000" fill-opacity="1"><g transform="translate(85.330407, 16.543058)"><g><path d="M 4.921875 -8.734375 C 5.566406 -8.734375 6.203125 -8.597656 6.828125 -8.328125 C 7.453125 -8.066406 7.984375 -7.71875 8.421875 -7.28125 L 7.140625 -5.765625 C 6.859375 -6.109375 6.519531 -6.378906 6.125 -6.578125 C 5.738281 -6.785156 5.351562 -6.890625 4.96875 -6.890625 C 4.28125 -6.890625 3.703125 -6.644531 3.234375 -6.15625 C 2.773438 -5.675781 2.546875 -5.082031 2.546875 -4.375 C 2.546875 -3.65625 2.773438 -3.050781 3.234375 -2.5625 C 3.703125 -2.070312 4.28125 -1.828125 4.96875 -1.828125 C 5.320312 -1.828125 5.695312 -1.914062 6.09375 -2.09375 C 6.488281 -2.28125 6.835938 -2.53125 7.140625 -2.84375 L 8.421875 -1.484375 C 7.953125 -1.003906 7.394531 -0.617188 6.75 -0.328125 C 6.113281 -0.046875 5.476562 0.09375 4.84375 0.09375 C 3.539062 0.09375 2.457031 -0.328125 1.59375 -1.171875 C 0.726562 -2.023438 0.296875 -3.085938 0.296875 -4.359375 C 0.296875 -5.597656 0.734375 -6.632812 1.609375 -7.46875 C 2.492188 -8.3125 3.597656 -8.734375 4.921875 -8.734375 Z M 4.921875 -8.734375 "/></g></g></g><g fill="#000000" fill-opacity="1"><g transform="translate(94.986657, 16.543058)"><g><path d="M 3.84375 -6.765625 C 4.757812 -6.765625 5.472656 -6.550781 5.984375 -6.125 C 6.492188 -5.707031 6.75 -5.117188 6.75 -4.359375 L 6.75 0 L 4.671875 0 L 4.671875 -0.765625 C 4.234375 -0.191406 3.550781 0.09375 2.625 0.09375 C 1.925781 0.09375 1.367188 -0.0976562 0.953125 -0.484375 C 0.535156 -0.867188 0.328125 -1.375 0.328125 -2 C 0.328125 -2.625 0.546875 -3.113281 0.984375 -3.46875 C 1.429688 -3.820312 2.066406 -4.003906 2.890625 -4.015625 L 4.65625 -4.015625 L 4.65625 -4.109375 C 4.65625 -4.441406 4.546875 -4.695312 4.328125 -4.875 C 4.109375 -5.0625 3.785156 -5.15625 3.359375 -5.15625 C 2.753906 -5.15625 2.085938 -4.972656 1.359375 -4.609375 L 0.75 -6.015625 C 1.832031 -6.515625 2.863281 -6.765625 3.84375 -6.765625 Z M 3.28125 -1.34375 C 3.613281 -1.34375 3.90625 -1.425781 4.15625 -1.59375 C 4.414062 -1.769531 4.582031 -1.992188 4.65625 -2.265625 L 4.65625 -2.859375 L 3.296875 -2.859375 C 2.660156 -2.859375 2.34375 -2.617188 2.34375 -2.140625 C 2.34375 -1.890625 2.421875 -1.691406 2.578125 -1.546875 C 2.742188 -1.410156 2.976562 -1.34375 3.28125 -1.34375 Z M 3.28125 -1.34375 "/></g></g></g><g fill="#000000" fill-opacity="1"><g transform="translate(103.5055, 16.543058)"><g><path d="M 3.78125 -2.578125 L 3.0625 -1.8125 L 3.0625 0 L 0.921875 0 L 0.921875 -9.1875 L 3.0625 -9.1875 L 3.0625 -4.328125 L 5.265625 -6.671875 L 7.6875 -6.671875 L 5.234375 -4.109375 L 7.765625 0 L 5.21875 0 Z M 3.78125 -2.578125 "/></g></g></g><g fill="#000000" fill-opacity="1"><g transform="translate(112.395235, 16.543058)"><g><path d="M 3.78125 -6.75 C 4.925781 -6.75 5.789062 -6.390625 6.375 -5.671875 C 6.957031 -4.960938 7.210938 -3.992188 7.140625 -2.765625 L 2.453125 -2.765625 C 2.554688 -2.367188 2.742188 -2.0625 3.015625 -1.84375 C 3.285156 -1.625 3.617188 -1.515625 4.015625 -1.515625 C 4.628906 -1.515625 5.164062 -1.742188 5.625 -2.203125 L 6.75 -1.09375 C 6.03125 -0.3125 5.0625 0.078125 3.84375 0.078125 C 2.757812 0.078125 1.894531 -0.226562 1.25 -0.84375 C 0.613281 -1.46875 0.296875 -2.289062 0.296875 -3.3125 C 0.296875 -4.34375 0.613281 -5.171875 1.25 -5.796875 C 1.894531 -6.429688 2.738281 -6.75 3.78125 -6.75 Z M 2.40625 -3.90625 L 5.09375 -3.90625 C 5.09375 -4.3125 4.972656 -4.640625 4.734375 -4.890625 C 4.492188 -5.140625 4.179688 -5.265625 3.796875 -5.265625 C 3.429688 -5.265625 3.125 -5.140625 2.875 -4.890625 C 2.632812 -4.648438 2.476562 -4.320312 2.40625 -3.90625 Z M 2.40625 -3.90625 "/></g></g></g><g fill="#000000" fill-opacity="1"><g transform="translate(94.770875, 30.026701)"><g><path d="M 0.578125 -5.78125 L 3.3125 -5.78125 C 3.957031 -5.78125 4.46875 -5.644531 4.84375 -5.375 C 5.226562 -5.113281 5.421875 -4.765625 5.421875 -4.328125 C 5.421875 -4.023438 5.332031 -3.757812 5.15625 -3.53125 C 4.988281 -3.300781 4.75 -3.144531 4.4375 -3.0625 C 4.800781 -2.988281 5.085938 -2.816406 5.296875 -2.546875 C 5.515625 -2.285156 5.625 -1.96875 5.625 -1.59375 C 5.625 -1.101562 5.425781 -0.710938 5.03125 -0.421875 C 4.632812 -0.140625 4.09375 0 3.40625 0 L 0.578125 0 Z M 2.03125 -4.65625 L 2.03125 -3.46875 L 3.21875 -3.46875 C 3.4375 -3.46875 3.609375 -3.519531 3.734375 -3.625 C 3.859375 -3.726562 3.921875 -3.875 3.921875 -4.0625 C 3.921875 -4.25 3.859375 -4.394531 3.734375 -4.5 C 3.609375 -4.601562 3.4375 -4.65625 3.21875 -4.65625 Z M 2.03125 -2.40625 L 2.03125 -1.125 L 3.21875 -1.125 C 3.5 -1.125 3.71875 -1.179688 3.875 -1.296875 C 4.03125 -1.421875 4.109375 -1.582031 4.109375 -1.78125 C 4.109375 -1.976562 4.03125 -2.128906 3.875 -2.234375 C 3.71875 -2.347656 3.5 -2.40625 3.21875 -2.40625 Z M 2.03125 -2.40625 "/></g></g></g><g fill="#000000" fill-opacity="1"><g transform="translate(101.956727, 30.026701)"><g><path d="M 3.5625 -1.859375 L 3.5625 0 L 2.09375 0 L 2.09375 -1.828125 L -0.046875 -5.78125 L 1.421875 -5.78125 L 2.828125 -3.265625 L 4.1875 -5.78125 L 5.65625 -5.78125 Z M 3.5625 -1.859375 "/></g></g></g><g fill="#000000" fill-opacity="1"><g transform="translate(75.649623, 39.651781)"><g><path d="M 2.796875 -5.84375 C 3.660156 -5.84375 4.421875 -5.628906 5.078125 -5.203125 L 4.515625 -4.046875 C 4.210938 -4.222656 3.890625 -4.367188 3.546875 -4.484375 C 3.203125 -4.597656 2.910156 -4.65625 2.671875 -4.65625 C 2.242188 -4.65625 2.03125 -4.515625 2.03125 -4.234375 C 2.03125 -4.046875 2.132812 -3.894531 2.34375 -3.78125 C 2.5625 -3.675781 2.816406 -3.582031 3.109375 -3.5 C 3.410156 -3.425781 3.710938 -3.332031 4.015625 -3.21875 C 4.316406 -3.101562 4.570312 -2.921875 4.78125 -2.671875 C 4.988281 -2.421875 5.09375 -2.101562 5.09375 -1.71875 C 5.09375 -1.15625 4.875 -0.71875 4.4375 -0.40625 C 4 -0.101562 3.445312 0.046875 2.78125 0.046875 C 2.300781 0.046875 1.828125 -0.0351562 1.359375 -0.203125 C 0.890625 -0.367188 0.484375 -0.59375 0.140625 -0.875 L 0.703125 -2 C 0.992188 -1.75 1.335938 -1.539062 1.734375 -1.375 C 2.128906 -1.21875 2.484375 -1.140625 2.796875 -1.140625 C 3.035156 -1.140625 3.21875 -1.179688 3.34375 -1.265625 C 3.476562 -1.347656 3.546875 -1.472656 3.546875 -1.640625 C 3.546875 -1.796875 3.46875 -1.925781 3.3125 -2.03125 C 3.164062 -2.144531 2.976562 -2.226562 2.75 -2.28125 C 2.53125 -2.332031 2.285156 -2.398438 2.015625 -2.484375 C 1.753906 -2.578125 1.507812 -2.675781 1.28125 -2.78125 C 1.0625 -2.882812 0.875 -3.050781 0.71875 -3.28125 C 0.570312 -3.507812 0.5 -3.78125 0.5 -4.09375 C 0.5 -4.625 0.707031 -5.046875 1.125 -5.359375 C 1.539062 -5.679688 2.097656 -5.84375 2.796875 -5.84375 Z M 2.796875 -5.84375 "/></g></g></g><g fill="#000000" fill-opacity="1"><g transform="translate(82.249717, 39.651781)"><g><path d="M 5.90625 0 L 4.4375 0 L 4.4375 -2.25 L 2.046875 -2.25 L 2.046875 0 L 0.578125 0 L 0.578125 -5.78125 L 2.046875 -5.78125 L 2.046875 -3.40625 L 4.4375 -3.40625 L 4.4375 -5.78125 L 5.90625 -5.78125 Z M 5.90625 0 "/></g></g></g><g fill="#000000" fill-opacity="1"><g transform="translate(90.021328, 39.651781)"><g><path d="M 2.046875 0 L 0.578125 0 L 0.578125 -5.78125 L 2.046875 -5.78125 Z M 2.046875 0 "/></g></g></g><g fill="#000000" fill-opacity="1"><g transform="translate(93.931877, 39.651781)"><g><path d="M 3.75 0 L 2.234375 0 L -0.015625 -5.78125 L 1.5625 -5.78125 L 3.03125 -1.53125 L 4.515625 -5.78125 L 6.015625 -5.78125 Z M 3.75 0 "/></g></g></g><g fill="#000000" fill-opacity="1"><g transform="translate(101.23323, 39.651781)"><g><path d="M 4.40625 -1.0625 L 1.890625 -1.0625 L 1.46875 0 L -0.046875 0 L 2.453125 -5.78125 L 3.953125 -5.78125 L 6.390625 0 L 4.828125 0 Z M 3.984375 -2.171875 L 3.15625 -4.3125 L 2.3125 -2.171875 Z M 3.984375 -2.171875 "/></g></g></g><g fill="#000000" fill-opacity="1"><g transform="translate(108.87284, 39.651781)"><g><path d="M 5.90625 0 L 4.609375 0 L 1.953125 -3.5625 L 1.953125 0 L 0.578125 0 L 0.578125 -5.78125 L 1.875 -5.78125 L 4.53125 -2.21875 L 4.53125 -5.78125 L 5.90625 -5.78125 Z M 5.90625 0 "/></g></g></g><g fill="#000000" fill-opacity="1"><g transform="translate(116.644452, 39.651781)"><g><path d="M 4.40625 -2.9375 L 5.6875 -2.9375 L 5.6875 -0.6875 C 5.375 -0.46875 4.992188 -0.285156 4.546875 -0.140625 C 4.109375 -0.00390625 3.6875 0.0625 3.28125 0.0625 C 2.40625 0.0625 1.671875 -0.21875 1.078125 -0.78125 C 0.492188 -1.34375 0.203125 -2.046875 0.203125 -2.890625 C 0.203125 -3.722656 0.503906 -4.421875 1.109375 -4.984375 C 1.710938 -5.546875 2.46875 -5.828125 3.375 -5.828125 C 3.8125 -5.828125 4.238281 -5.75 4.65625 -5.59375 C 5.082031 -5.4375 5.441406 -5.226562 5.734375 -4.96875 L 4.921875 -3.96875 C 4.710938 -4.15625 4.46875 -4.304688 4.1875 -4.421875 C 3.914062 -4.535156 3.644531 -4.59375 3.375 -4.59375 C 2.90625 -4.59375 2.507812 -4.425781 2.1875 -4.09375 C 1.863281 -3.769531 1.703125 -3.367188 1.703125 -2.890625 C 1.703125 -2.398438 1.863281 -1.988281 2.1875 -1.65625 C 2.507812 -1.320312 2.910156 -1.15625 3.390625 -1.15625 C 3.703125 -1.15625 4.039062 -1.25 4.40625 -1.4375 Z M 4.40625 -2.9375 "/></g></g></g><g fill="#000000" fill-opacity="1"><g transform="translate(124.061307, 39.651781)"><g><path d="M 2.046875 0 L 0.578125 0 L 0.578125 -5.78125 L 2.046875 -5.78125 Z M 2.046875 0 "/></g></g></g><g fill="#000000" fill-opacity="1"><g transform="translate(54.288259, 5.71285)"><g><path d="M 3.578125 -4.46875 L 3.578125 -3.71875 L 2.28125 -3.71875 L 2.28125 0 L 1.40625 0 L 1.40625 -3.71875 L 0.125 -3.71875 L 0.125 -4.46875 Z M 3.578125 -4.46875 "/></g></g><g transform="translate(57.986963, 5.71285)"><g><path d="M 1.390625 0 L 0.578125 0 L 0.578125 -4.46875 L 1.734375 -4.46875 L 2.859375 -1.1875 L 2.921875 -1.1875 L 4.046875 -4.46875 L 5.171875 -4.46875 L 5.171875 0 L 4.34375 0 L 4.34375 -2.953125 L 4.265625 -2.953125 L 3.234375 0 L 2.5 0 L 1.46875 -2.953125 L 1.390625 -2.953125 Z M 1.390625 0 "/></g></g></g></svg>